<svg width="282" height="80" viewBox="0 0 282 80" fill="none" xmlns="http://www.w3.org/2000/svg">
<path fill-rule="evenodd" clip-rule="evenodd" d="M33.9001 17.996C28.5731 14.954 22.1629 14.298 16.5389 15.7453C7.7781 18.0052 0 25.6099 0 38.3193C0 54.9486 13.3498 68.3981 35.0942 79.5176C35.7149 79.8351 36.3934 79.9999 37.0804 79.9999C37.7674 79.9999 38.4459 79.8351 39.0667 79.5176C60.8157 68.4031 74.1655 54.9536 74.1655 38.3243C74.1655 25.6149 66.3874 18.0052 57.6266 15.7503C54.082 14.8382 50.1358 15.323 46.6764 16.3658C40.6717 18.1758 36.1131 21.8641 34.3508 23.7496C32.9296 25.2703 33.0106 26.2809 33.1389 26.6413C33.2688 27.0062 33.7525 27.583 35.0194 27.6592C38.0253 27.84 40.5013 26.5134 42.9618 25.195L43.1264 25.1069C44.2019 24.5305 45.5903 23.7863 46.9215 23.597C47.6927 23.4873 48.5861 23.5346 49.4638 23.9729C50.3334 24.4072 50.952 25.1077 51.3939 25.8818C52.0466 27.0251 52.0529 28.2689 51.8123 29.331C51.574 30.3825 51.0636 31.4183 50.4354 32.3851C49.1753 34.3244 47.1865 36.3735 44.8003 38.288C40.0262 42.1184 33.2165 45.7627 26.2132 47.0064C24.9659 47.2279 23.7752 46.3964 23.5536 45.1491C23.3321 43.9018 24.1637 42.7111 25.411 42.4895C31.4979 41.4086 37.6151 38.1713 41.9294 34.7098C44.0874 32.9784 45.6831 31.279 46.5885 29.8856C47.0431 29.186 47.2606 28.6594 47.3381 28.3172C47.4003 28.0428 45.4489 29.0671 45.2197 29.1898C45.1128 29.2471 45.003 29.3062 44.8904 29.3668C42.574 30.6141 39.0738 32.4989 34.7439 32.2385C32.113 32.0803 29.7084 30.6841 28.817 28.1798C27.9239 25.671 28.8506 22.9161 30.9993 20.6171C31.6861 19.8822 32.6665 18.9687 33.9001 17.996ZM52.9713 38.9994C53.8435 38.0811 55.2949 38.0435 56.2135 38.9154C57.1323 39.7876 57.1702 41.2394 56.298 42.1582C56.2505 42.2083 56.1997 42.2606 56.1505 42.311C56.0596 42.4042 55.9276 42.5382 55.7562 42.7089C55.4134 43.0503 54.9127 43.5385 54.2681 44.1398C52.9796 45.3417 51.1121 46.9991 48.7779 48.8394C44.1241 52.5087 37.5448 56.9613 29.9455 59.9537C28.7668 60.4179 27.435 59.8386 26.9708 58.6599C26.5067 57.4812 27.0859 56.1493 28.2647 55.6852C35.3001 52.9148 41.4854 48.7472 45.9376 45.2369C48.1563 43.4876 49.9272 41.9154 51.1388 40.7852C51.7442 40.2204 52.209 39.767 52.5192 39.4581C52.6742 39.3037 52.7906 39.1855 52.8664 39.1078L52.9174 39.0553L52.9496 39.022L52.968 39.0028L52.9713 38.9994ZM63.228 49.7026C63.9786 48.682 63.7596 47.2463 62.739 46.4958C61.7187 45.7455 60.2835 45.9641 59.5328 46.984L59.5322 46.9848L59.5318 46.9854L59.5194 47.002C59.5072 47.0183 59.4871 47.0451 59.4591 47.0817C59.4033 47.1551 59.3162 47.2682 59.1984 47.4173C58.9627 47.7156 58.6046 48.1576 58.1288 48.7135C57.1767 49.8259 55.7562 51.3907 53.9053 53.1707C50.1961 56.7378 44.8002 61.1287 38.0227 64.4884C36.8877 65.0511 36.4237 66.4273 36.9864 67.5623C37.549 68.6973 38.9253 69.1613 40.0603 68.5987C47.3748 64.9727 53.1482 60.2636 57.0853 56.4773C59.0576 54.5805 60.5795 52.9052 61.614 51.6966C62.1315 51.092 62.5278 50.6034 62.7982 50.2611C62.9334 50.0899 63.0372 49.9553 63.109 49.8609C63.1487 49.8088 63.1884 49.7565 63.2273 49.7037L63.228 49.7026Z" fill="#110D21"/>
<path d="M33.9203 17.9787C26.5664 -0.282235 47.6161 -6.19321 65.584 7.56944C65.584 7.56944 46.1555 8.29615 33.9203 17.9787Z" fill="#110D21"/>
<path d="M89.4739 59.5799L101.806 23.7621H110.945L123.277 59.5799H116.546L113.844 51.7186H98.9074L96.2542 59.5799H89.4739ZM100.48 46.7071H112.321L108.783 36.6349L106.523 29.7072H106.277L103.968 36.6349L100.48 46.7071Z" fill="#110D21"/>
<path d="M125.212 67.785L125.261 33.4413H131.157L131.354 38.2563H131.747C132.369 36.6513 133.434 35.3738 134.94 34.4239C136.447 33.4413 138.249 32.95 140.345 32.95C143.49 32.95 146.028 34.0964 147.961 36.3892C149.926 38.6821 150.909 42.0559 150.909 46.5106C150.909 50.9325 149.926 54.3063 147.961 56.6319C146.028 58.9248 143.49 60.0712 140.345 60.0712C138.249 60.0712 136.447 59.5799 134.94 58.5972C133.434 57.6146 132.369 56.3371 131.747 54.7649H131.354V67.785H125.212ZM138.085 55.0597C140.05 55.0597 141.623 54.3554 142.802 52.947C144.014 51.5385 144.62 49.393 144.62 46.5106C144.62 43.6281 144.014 41.4827 142.802 40.0742C141.623 38.6657 140.05 37.9615 138.085 37.9615C136.611 37.9615 135.383 38.3054 134.4 38.9933C133.417 39.6811 132.68 40.5655 132.189 41.6464C131.698 42.7274 131.452 43.8902 131.452 45.1349V47.8863C131.452 49.0982 131.698 50.261 132.189 51.3747C132.68 52.4556 133.417 53.34 134.4 54.0279C135.383 54.7157 136.611 55.0597 138.085 55.0597Z" fill="#110D21"/>
<path d="M154.35 67.785L154.399 33.4413H160.295L160.492 38.2563H160.885C161.507 36.6513 162.572 35.3738 164.078 34.4239C165.585 33.4413 167.387 32.95 169.483 32.95C172.628 32.95 175.166 34.0964 177.099 36.3892C179.064 38.6821 180.047 42.0559 180.047 46.5106C180.047 50.9325 179.064 54.3063 177.099 56.6319C175.166 58.9248 172.628 60.0712 169.483 60.0712C167.387 60.0712 165.585 59.5799 164.078 58.5972C162.572 57.6146 161.507 56.3371 160.885 54.7649H160.492V67.785H154.35ZM167.223 55.0597C169.188 55.0597 170.761 54.3554 171.94 52.947C173.152 51.5385 173.758 49.393 173.758 46.5106C173.758 43.6281 173.152 41.4827 171.94 40.0742C170.761 38.6657 169.188 37.9615 167.223 37.9615C165.749 37.9615 164.521 38.3054 163.538 38.9933C162.555 39.6811 161.818 40.5655 161.327 41.6464C160.836 42.7274 160.59 43.8902 160.59 45.1349V47.8863C160.59 49.0982 160.836 50.261 161.327 51.3747C161.818 52.4556 162.555 53.34 163.538 54.0279C164.521 54.7157 165.749 55.0597 167.223 55.0597Z" fill="#110D21"/>
<path d="M196.557 60.0221C193.38 60.0221 190.711 59.5307 188.549 58.5481C186.42 57.5654 184.815 56.2061 183.734 54.4701C182.653 52.7013 182.096 50.6705 182.063 48.3776H188.696C188.762 50.3757 189.433 51.9807 190.711 53.1926C191.988 54.4046 194.019 55.0105 196.803 55.0105C199.03 55.0105 200.816 54.6011 202.159 53.7822C203.502 52.9633 204.173 51.7186 204.173 50.0481C204.173 48.7707 203.895 47.7717 203.338 47.051C202.814 46.3304 201.897 45.7572 200.586 45.3314C199.309 44.8728 197.54 44.4634 195.28 44.1031C191.186 43.448 188.09 42.3507 185.994 40.8112C183.898 39.2717 182.849 36.9625 182.849 33.8835C182.849 30.6407 184.045 28.0694 186.436 26.1696C188.86 24.2698 192.201 23.3199 196.459 23.3199C199.243 23.3199 201.618 23.7621 203.583 24.6465C205.582 25.5309 207.121 26.7592 208.202 28.3315C209.283 29.9037 209.823 31.7544 209.823 33.8835H203.289C203.19 31.9509 202.486 30.5425 201.176 29.6581C199.866 28.7409 198.212 28.2823 196.214 28.2823C194.15 28.2823 192.529 28.7245 191.349 29.6089C190.17 30.4606 189.581 31.607 189.581 33.0482C189.581 34.2602 189.892 35.1937 190.514 35.8488C191.137 36.4711 192.119 36.9625 193.462 37.3228C194.805 37.6831 196.557 38.0434 198.719 38.4037C200.259 38.6657 201.749 38.9933 203.19 39.3863C204.664 39.7794 205.975 40.369 207.121 41.1551C208.3 41.9085 209.234 42.9566 209.922 44.2996C210.609 45.6098 210.953 47.3131 210.953 49.4094C210.953 52.5539 209.741 55.1088 207.318 57.0741C204.894 59.0394 201.307 60.0221 196.557 60.0221Z" fill="#110D21"/>
<path d="M214.785 59.5799V23.7621H220.927V59.5799H214.785Z" fill="#110D21"/>
<path d="M234.967 60.0221C231.823 60.0221 229.284 58.8756 227.352 56.5828C225.419 54.2899 224.453 50.9325 224.453 46.5106C224.453 42.0559 225.419 38.6821 227.352 36.3892C229.284 34.0964 231.823 32.95 234.967 32.95C237.096 32.95 238.914 33.4413 240.421 34.4239C241.928 35.3738 242.992 36.6513 243.615 38.2563H243.959L244.204 33.4413H250.1V59.5799H243.959V54.7157H243.615C242.992 56.3207 241.928 57.6146 240.421 58.5972C238.914 59.5471 237.096 60.0221 234.967 60.0221ZM237.277 55.0105C238.751 55.0105 239.963 54.6666 240.912 53.9788C241.895 53.2909 242.632 52.4065 243.123 51.3256C243.615 50.2119 243.86 49.0491 243.86 47.8372V45.1349C243.86 43.8902 243.615 42.7274 243.123 41.6464C242.632 40.5328 241.895 39.6484 240.912 38.9933C239.963 38.3054 238.751 37.9615 237.277 37.9615C235.311 37.9615 233.723 38.6657 232.511 40.0742C231.299 41.4827 230.693 43.6281 230.693 46.5106C230.693 49.3603 231.299 51.4894 232.511 52.8978C233.723 54.3063 235.311 55.0105 237.277 55.0105Z" fill="#110D21"/>
<path d="M255.212 67.785L255.261 33.4413H261.157L261.354 38.2563H261.747C262.369 36.6513 263.434 35.3738 264.941 34.4239C266.447 33.4413 268.249 32.95 270.345 32.95C273.49 32.95 276.028 34.0964 277.961 36.3892C279.926 38.6821 280.909 42.0559 280.909 46.5106C280.909 50.9325 279.926 54.3063 277.961 56.6319C276.028 58.9248 273.49 60.0712 270.345 60.0712C268.249 60.0712 266.447 59.5799 264.941 58.5972C263.434 57.6146 262.369 56.3371 261.747 54.7649H261.354V67.785H255.212ZM268.085 55.0597C270.05 55.0597 271.623 54.3554 272.802 52.947C274.014 51.5385 274.62 49.393 274.62 46.5106C274.62 43.6281 274.014 41.4827 272.802 40.0742C271.623 38.6657 270.05 37.9615 268.085 37.9615C266.611 37.9615 265.383 38.3054 264.4 38.9933C263.417 39.6811 262.681 40.5655 262.189 41.6464C261.698 42.7274 261.452 43.8902 261.452 45.1349V47.8863C261.452 49.0982 261.698 50.261 262.189 51.3747C262.681 52.4556 263.417 53.34 264.4 54.0279C265.383 54.7157 266.611 55.0597 268.085 55.0597Z" fill="#110D21"/>
</svg>
