<svg width="294" height="72" viewBox="0 0 294 72" fill="none" xmlns="http://www.w3.org/2000/svg">
<path fill-rule="evenodd" clip-rule="evenodd" d="M33.2758 16.0002C28.7157 13.3961 23.2283 12.8345 18.414 14.0735C10.9145 16.008 4.25622 22.5179 4.25622 33.3976C4.25622 47.6328 15.6841 59.1459 34.2979 68.6646C34.8293 68.9364 35.4101 69.0774 35.9982 69.0774C36.5864 69.0774 37.1671 68.9364 37.6985 68.6646C56.3164 59.1502 67.7442 47.637 67.7442 33.4018C67.7442 22.5221 61.0859 16.008 53.5864 14.0777C50.5522 13.2969 47.1741 13.712 44.2127 14.6046C39.0725 16.1541 35.1702 19.3113 33.6616 20.9254C32.445 22.2271 32.5143 23.0923 32.6242 23.4008C32.7353 23.7132 33.1495 24.2069 34.2339 24.2722C36.8071 24.4269 38.9266 23.2913 41.0329 22.1627L41.1738 22.0872C42.0944 21.5938 43.283 20.9568 44.4225 20.7948C45.0827 20.7009 45.8474 20.7414 46.5988 21.1166C47.3432 21.4883 47.8727 22.088 48.251 22.7506C48.8098 23.7293 48.8152 24.7941 48.6092 25.7032C48.4052 26.6033 47.9682 27.49 47.4305 28.3177C46.3518 29.9778 44.6494 31.7318 42.6067 33.3707C38.5199 36.6497 32.6906 39.7693 26.6955 40.834C25.6278 41.0236 24.6085 40.3117 24.4189 39.244C24.2293 38.1763 24.9411 37.157 26.0089 36.9674C31.2194 36.042 36.456 33.2708 40.1491 30.3077C41.9964 28.8255 43.3624 27.3708 44.1375 26.178C44.5266 25.5791 44.7128 25.1284 44.7792 24.8354C44.8324 24.6005 43.1619 25.4773 42.9658 25.5824C42.8742 25.6314 42.7802 25.682 42.6839 25.7339C40.701 26.8017 37.7046 28.4151 33.9981 28.1922C31.7459 28.0567 29.6876 26.8616 28.9245 24.7178C28.16 22.5701 28.9532 20.2119 30.7926 18.2439C31.3806 17.6148 32.2197 16.8328 33.2758 16.0002ZM49.6013 33.9797C50.3479 33.1936 51.5904 33.1614 52.3768 33.9078C53.1633 34.6544 53.1957 35.8972 52.4491 36.6838C52.4084 36.7266 52.3649 36.7714 52.3228 36.8145C52.245 36.8943 52.132 37.009 51.9853 37.1552C51.6918 37.4474 51.2632 37.8653 50.7114 38.38C49.6084 39.4089 48.0098 40.8277 46.0117 42.4031C42.0279 45.5441 36.3957 49.3556 29.8906 51.9173C28.8815 52.3146 27.7415 51.8187 27.3441 50.8097C26.9468 49.8007 27.4427 48.6606 28.4517 48.2633C34.4742 45.8917 39.7691 42.3241 43.5802 39.3192C45.4796 37.8217 46.9955 36.4759 48.0327 35.5084C48.5509 35.0249 48.9488 34.6368 49.2143 34.3724C49.347 34.2402 49.4466 34.1391 49.5116 34.0725L49.5552 34.0276L49.5828 33.999L49.5985 33.9826L49.6013 33.9797ZM58.3814 43.142C59.0239 42.2683 58.8365 41.0393 57.9628 40.3969C57.0894 39.7546 55.8608 39.9417 55.2182 40.8148L55.2177 40.8154L55.2173 40.816L55.2067 40.8302C55.1962 40.8442 55.179 40.867 55.1551 40.8984C55.1073 40.9612 55.0327 41.0581 54.9319 41.1857C54.7302 41.441 54.4236 41.8194 54.0163 42.2953C53.2013 43.2475 51.9853 44.5871 50.4009 46.1108C47.2257 49.1644 42.6066 52.9231 36.8049 55.7991C35.8333 56.2808 35.4361 57.4588 35.9177 58.4305C36.3994 59.4021 37.5775 59.7993 38.5491 59.3176C44.8105 56.2137 49.7527 52.1826 53.123 48.9413C54.8114 47.3176 56.1142 45.8835 56.9998 44.8489C57.4428 44.3314 57.782 43.9131 58.0134 43.6201C58.1292 43.4735 58.2181 43.3583 58.2795 43.2775C58.3136 43.2329 58.3475 43.1881 58.3808 43.1429L58.3814 43.142Z" fill="url(#paint0_linear_322_258)"/>
<path d="M33.293 15.9854C26.9978 0.353491 45.017 -4.70649 60.3981 7.07477C60.3981 7.07477 43.7667 7.69686 33.293 15.9854Z" fill="url(#paint1_linear_322_258)"/>
<path d="M268.746 60.5156L268.794 26.9636H274.554L274.746 31.6676H275.13C275.738 30.0996 276.778 28.8516 278.25 27.9236C279.722 26.9636 281.482 26.4836 283.53 26.4836C286.602 26.4836 289.082 27.6036 290.97 29.8436C292.89 32.0836 293.85 35.3796 293.85 39.7316C293.85 44.0516 292.89 47.3476 290.97 49.6196C289.082 51.8596 286.602 52.9796 283.53 52.9796C281.482 52.9796 279.722 52.4996 278.25 51.5396C276.778 50.5796 275.738 49.3316 275.13 47.7956H274.746V60.5156H268.746ZM281.322 48.0836C283.242 48.0836 284.778 47.3956 285.93 46.0196C287.114 44.6436 287.706 42.5476 287.706 39.7316C287.706 36.9156 287.114 34.8196 285.93 33.4436C284.778 32.0676 283.242 31.3796 281.322 31.3796C279.882 31.3796 278.682 31.7156 277.722 32.3876C276.762 33.0596 276.042 33.9236 275.562 34.9796C275.082 36.0356 274.842 37.1716 274.842 38.3876V41.0756C274.842 42.2596 275.082 43.3956 275.562 44.4836C276.042 45.5396 276.762 46.4036 277.722 47.0756C278.682 47.7476 279.882 48.0836 281.322 48.0836Z" fill="#110D21"/>
<path d="M248.488 52.9316C245.416 52.9316 242.936 51.8116 241.048 49.5716C239.16 47.3316 238.216 44.0516 238.216 39.7316C238.216 35.3796 239.16 32.0836 241.048 29.8436C242.936 27.6036 245.416 26.4836 248.488 26.4836C250.568 26.4836 252.344 26.9636 253.816 27.9236C255.288 28.8516 256.328 30.0996 256.936 31.6676H257.272L257.512 26.9636H263.272V52.4996H257.272V47.7476H256.936C256.328 49.3156 255.288 50.5796 253.816 51.5396C252.344 52.4676 250.568 52.9316 248.488 52.9316ZM250.744 48.0356C252.184 48.0356 253.368 47.6996 254.296 47.0276C255.256 46.3556 255.976 45.4916 256.456 44.4356C256.936 43.3476 257.176 42.2116 257.176 41.0276V38.3876C257.176 37.1716 256.936 36.0356 256.456 34.9796C255.976 33.8916 255.256 33.0276 254.296 32.3876C253.368 31.7156 252.184 31.3796 250.744 31.3796C248.824 31.3796 247.272 32.0676 246.088 33.4436C244.904 34.8196 244.312 36.9156 244.312 39.7316C244.312 42.5156 244.904 44.5956 246.088 45.9716C247.272 47.3476 248.824 48.0356 250.744 48.0356Z" fill="#110D21"/>
<path d="M228.291 52.4998V17.5078H234.291V52.4998H228.291Z" fill="#110D21"/>
<path d="M212.937 52.9796C209.321 52.9796 206.521 52.1956 204.537 50.6276C202.585 49.0596 201.625 47.0116 201.657 44.4836H207.561C207.593 46.0196 208.121 47.1396 209.145 47.8436C210.201 48.5156 211.513 48.8516 213.081 48.8516C214.713 48.8516 215.945 48.5636 216.777 47.9876C217.641 47.4116 218.073 46.6116 218.073 45.5876C218.073 44.2756 217.609 43.4116 216.681 42.9956C215.785 42.5796 214.345 42.2276 212.361 41.9396C210.441 41.6516 208.729 41.2676 207.225 40.7876C205.721 40.3076 204.521 39.5716 203.625 38.5796C202.761 37.5556 202.329 36.1476 202.329 34.3556C202.329 31.7956 203.321 29.8436 205.305 28.4996C207.289 27.1556 209.881 26.4836 213.081 26.4836C216.313 26.4836 218.857 27.1876 220.713 28.5956C222.601 30.0036 223.561 31.9716 223.593 34.4996H217.737C217.705 33.1876 217.257 32.2116 216.393 31.5716C215.529 30.9316 214.377 30.6116 212.937 30.6116C211.433 30.6116 210.281 30.8996 209.481 31.4756C208.713 32.0516 208.329 32.8036 208.329 33.7316C208.329 34.8196 208.793 35.6036 209.721 36.0836C210.681 36.5636 212.169 36.9316 214.185 37.1876C215.977 37.4116 217.625 37.7636 219.129 38.2436C220.633 38.6916 221.833 39.4276 222.729 40.4516C223.657 41.4756 224.121 42.9956 224.121 45.0116C224.121 47.7316 223.113 49.7476 221.097 51.0596C219.113 52.3396 216.393 52.9796 212.937 52.9796Z" fill="#110D21"/>
<path d="M174.055 60.5156L174.103 26.9636H179.863L180.055 31.6676H180.439C181.047 30.0996 182.087 28.8516 183.559 27.9236C185.031 26.9636 186.791 26.4836 188.839 26.4836C191.911 26.4836 194.391 27.6036 196.279 29.8436C198.199 32.0836 199.159 35.3796 199.159 39.7316C199.159 44.0516 198.199 47.3476 196.279 49.6196C194.391 51.8596 191.911 52.9796 188.839 52.9796C186.791 52.9796 185.031 52.4996 183.559 51.5396C182.087 50.5796 181.047 49.3316 180.439 47.7956H180.055V60.5156H174.055ZM186.631 48.0836C188.551 48.0836 190.087 47.3956 191.239 46.0196C192.423 44.6436 193.015 42.5476 193.015 39.7316C193.015 36.9156 192.423 34.8196 191.239 33.4436C190.087 32.0676 188.551 31.3796 186.631 31.3796C185.191 31.3796 183.991 31.7156 183.031 32.3876C182.071 33.0596 181.351 33.9236 180.871 34.9796C180.391 36.0356 180.151 37.1716 180.151 38.3876V41.0756C180.151 42.2596 180.391 43.3956 180.871 44.4836C181.351 45.5396 182.071 46.4036 183.031 47.0756C183.991 47.7476 185.191 48.0836 186.631 48.0836Z" fill="#110D21"/>
<path d="M145.108 60.5156L145.156 26.9636H150.916L151.108 31.6676H151.492C152.1 30.0996 153.14 28.8516 154.612 27.9236C156.084 26.9636 157.844 26.4836 159.892 26.4836C162.964 26.4836 165.444 27.6036 167.332 29.8436C169.252 32.0836 170.212 35.3796 170.212 39.7316C170.212 44.0516 169.252 47.3476 167.332 49.6196C165.444 51.8596 162.964 52.9796 159.892 52.9796C157.844 52.9796 156.084 52.4996 154.612 51.5396C153.14 50.5796 152.1 49.3316 151.492 47.7956H151.108V60.5156H145.108ZM157.684 48.0836C159.604 48.0836 161.14 47.3956 162.292 46.0196C163.476 44.6436 164.068 42.5476 164.068 39.7316C164.068 36.9156 163.476 34.8196 162.292 33.4436C161.14 32.0676 159.604 31.3796 157.684 31.3796C156.244 31.3796 155.044 31.7156 154.084 32.3876C153.124 33.0596 152.404 33.9236 151.924 34.9796C151.444 36.0356 151.204 37.1716 151.204 38.3876V41.0756C151.204 42.2596 151.444 43.3956 151.924 44.4836C152.404 45.5396 153.124 46.4036 154.084 47.0756C155.044 47.7476 156.244 48.0836 157.684 48.0836Z" fill="#110D21"/>
<path d="M124.85 52.9316C121.778 52.9316 119.298 51.8116 117.41 49.5716C115.522 47.3316 114.578 44.0516 114.578 39.7316C114.578 35.3796 115.522 32.0836 117.41 29.8436C119.298 27.6036 121.778 26.4836 124.85 26.4836C126.93 26.4836 128.706 26.9636 130.178 27.9236C131.65 28.8516 132.69 30.0996 133.298 31.6676H133.634L133.874 26.9636H139.634V52.4996H133.634V47.7476H133.298C132.69 49.3156 131.65 50.5796 130.178 51.5396C128.706 52.4676 126.93 52.9316 124.85 52.9316ZM127.106 48.0356C128.546 48.0356 129.73 47.6996 130.658 47.0276C131.618 46.3556 132.338 45.4916 132.818 44.4356C133.298 43.3476 133.538 42.2116 133.538 41.0276V38.3876C133.538 37.1716 133.298 36.0356 132.818 34.9796C132.338 33.8916 131.618 33.0276 130.658 32.3876C129.73 31.7156 128.546 31.3796 127.106 31.3796C125.186 31.3796 123.634 32.0676 122.45 33.4436C121.266 34.8196 120.674 36.9156 120.674 39.7316C120.674 42.5156 121.266 44.5956 122.45 45.9716C123.634 47.3476 125.186 48.0356 127.106 48.0356Z" fill="#110D21"/>
<path d="M95.904 52.9318C92.832 52.9318 90.352 51.8118 88.464 49.5718C86.576 47.3318 85.632 44.0518 85.632 39.7318C85.632 35.3798 86.576 32.0838 88.464 29.8438C90.352 27.6038 92.832 26.4838 95.904 26.4838C97.984 26.4838 99.76 26.9638 101.232 27.9238C102.704 28.8518 103.744 30.0998 104.352 31.6678H104.688V17.5078H110.688L110.64 52.4998H104.88L104.688 47.7478H104.352C103.744 49.3158 102.704 50.5798 101.232 51.5398C99.76 52.4678 97.984 52.9318 95.904 52.9318ZM98.16 48.0358C99.6 48.0358 100.784 47.6998 101.712 47.0278C102.672 46.3558 103.392 45.4918 103.872 44.4358C104.352 43.3478 104.592 42.2118 104.592 41.0278V38.3878C104.592 37.1718 104.352 36.0358 103.872 34.9798C103.392 33.8918 102.672 33.0278 101.712 32.3878C100.784 31.7158 99.6 31.3798 98.16 31.3798C96.24 31.3798 94.688 32.0678 93.504 33.4438C92.32 34.8198 91.728 36.9158 91.728 39.7318C91.728 42.5158 92.32 44.5958 93.504 45.9718C94.688 47.3478 96.24 48.0358 98.16 48.0358Z" fill="#110D21"/>
<defs>
<linearGradient id="paint0_linear_322_258" x1="30.7641" y1="13.6751" x2="30.7641" y2="69.3089" gradientUnits="userSpaceOnUse">
<stop stop-color="#FFA755"/>
<stop offset="1" stop-color="#FF4D7C"/>
</linearGradient>
<linearGradient id="paint1_linear_322_258" x1="55.4897" y1="4.2157" x2="32.8594" y2="11.345" gradientUnits="userSpaceOnUse">
<stop stop-color="#B3D944"/>
<stop offset="1" stop-color="#83B337"/>
</linearGradient>
</defs>
</svg>
