<svg width="294" height="72" viewBox="0 0 294 72" fill="none" xmlns="http://www.w3.org/2000/svg">
<path fill-rule="evenodd" clip-rule="evenodd" d="M33.2758 16.0002C28.7157 13.3961 23.2283 12.8345 18.414 14.0735C10.9145 16.008 4.25622 22.5179 4.25622 33.3976C4.25622 47.6328 15.6841 59.1459 34.2979 68.6646C34.8293 68.9364 35.4101 69.0774 35.9982 69.0774C36.5864 69.0774 37.1671 68.9364 37.6985 68.6646C56.3164 59.1502 67.7442 47.637 67.7442 33.4018C67.7442 22.5221 61.0859 16.008 53.5864 14.0777C50.5522 13.2969 47.1741 13.712 44.2127 14.6046C39.0725 16.1541 35.1702 19.3113 33.6616 20.9254C32.445 22.2271 32.5143 23.0923 32.6242 23.4008C32.7353 23.7132 33.1495 24.2069 34.2339 24.2722C36.8071 24.4269 38.9266 23.2913 41.0329 22.1627L41.1738 22.0872C42.0944 21.5938 43.283 20.9568 44.4225 20.7948C45.0827 20.7009 45.8474 20.7414 46.5988 21.1166C47.3432 21.4883 47.8727 22.088 48.251 22.7506C48.8098 23.7293 48.8152 24.7941 48.6092 25.7032C48.4052 26.6033 47.9682 27.49 47.4305 28.3177C46.3518 29.9778 44.6494 31.7318 42.6067 33.3707C38.5199 36.6497 32.6906 39.7693 26.6955 40.834C25.6278 41.0236 24.6085 40.3117 24.4189 39.244C24.2293 38.1763 24.9411 37.157 26.0089 36.9674C31.2194 36.042 36.456 33.2708 40.1491 30.3077C41.9964 28.8255 43.3624 27.3708 44.1375 26.178C44.5266 25.5791 44.7128 25.1284 44.7792 24.8354C44.8324 24.6005 43.1619 25.4773 42.9657 25.5824C42.8742 25.6314 42.7802 25.682 42.6839 25.7339C40.701 26.8017 37.7046 28.4151 33.9981 28.1922C31.7459 28.0567 29.6876 26.8616 28.9245 24.7178C28.16 22.5701 28.9532 20.2119 30.7926 18.2439C31.3806 17.6148 32.2197 16.8328 33.2758 16.0002ZM49.6013 33.9797C50.3479 33.1936 51.5904 33.1614 52.3768 33.9078C53.1633 34.6544 53.1957 35.8972 52.4491 36.6838C52.4084 36.7266 52.3649 36.7714 52.3228 36.8145C52.245 36.8943 52.132 37.009 51.9853 37.1552C51.6918 37.4474 51.2632 37.8653 50.7114 38.38C49.6084 39.4089 48.0098 40.8277 46.0117 42.4031C42.0279 45.5441 36.3957 49.3556 29.8906 51.9173C28.8815 52.3146 27.7415 51.8187 27.3441 50.8097C26.9468 49.8007 27.4427 48.6606 28.4517 48.2633C34.4742 45.8917 39.7691 42.3241 43.5802 39.3192C45.4796 37.8217 46.9955 36.4759 48.0327 35.5084C48.5509 35.0249 48.9488 34.6368 49.2143 34.3724C49.347 34.2402 49.4466 34.1391 49.5116 34.0725L49.5552 34.0276L49.5828 33.999L49.5985 33.9826L49.6013 33.9797ZM58.3814 43.142C59.0239 42.2683 58.8365 41.0393 57.9628 40.3969C57.0894 39.7546 55.8608 39.9417 55.2182 40.8148L55.2177 40.8154L55.2173 40.816L55.2067 40.8302C55.1962 40.8442 55.179 40.867 55.1551 40.8984C55.1073 40.9612 55.0327 41.0581 54.9319 41.1857C54.7302 41.441 54.4236 41.8194 54.0163 42.2953C53.2013 43.2475 51.9853 44.5871 50.4009 46.1108C47.2257 49.1644 42.6066 52.9231 36.8049 55.7991C35.8333 56.2808 35.4361 57.4588 35.9177 58.4305C36.3994 59.4021 37.5775 59.7993 38.5491 59.3176C44.8105 56.2137 49.7527 52.1826 53.123 48.9413C54.8114 47.3176 56.1142 45.8835 56.9998 44.8489C57.4428 44.3314 57.782 43.9131 58.0134 43.6201C58.1292 43.4735 58.2181 43.3583 58.2795 43.2775C58.3136 43.2329 58.3475 43.1881 58.3808 43.1429L58.3814 43.142Z" fill="url(#paint0_linear_323_150)"/>
<path d="M33.293 15.9852C26.9978 0.353247 45.017 -4.70673 60.3981 7.07453C60.3981 7.07453 43.7667 7.69661 33.293 15.9852Z" fill="url(#paint1_linear_323_150)"/>
<path d="M268.746 60.5157L268.794 26.9638H274.554L274.746 31.6678H275.13C275.738 30.0998 276.778 28.8518 278.25 27.9238C279.722 26.9638 281.482 26.4838 283.53 26.4838C286.602 26.4838 289.082 27.6038 290.97 29.8438C292.89 32.0838 293.85 35.3798 293.85 39.7318C293.85 44.0517 292.89 47.3477 290.97 49.6197C289.082 51.8597 286.602 52.9797 283.53 52.9797C281.482 52.9797 279.722 52.4997 278.25 51.5397C276.778 50.5797 275.738 49.3317 275.13 47.7957H274.746V60.5157H268.746ZM281.322 48.0837C283.242 48.0837 284.778 47.3957 285.93 46.0197C287.114 44.6438 287.706 42.5478 287.706 39.7318C287.706 36.9158 287.114 34.8198 285.93 33.4438C284.778 32.0678 283.242 31.3798 281.322 31.3798C279.882 31.3798 278.682 31.7158 277.722 32.3878C276.762 33.0598 276.042 33.9238 275.562 34.9798C275.082 36.0358 274.842 37.1718 274.842 38.3878V41.0758C274.842 42.2598 275.082 43.3958 275.562 44.4838C276.042 45.5397 276.762 46.4037 277.722 47.0757C278.682 47.7477 279.882 48.0837 281.322 48.0837Z" fill="#110D21"/>
<path d="M248.488 52.9317C245.416 52.9317 242.936 51.8117 241.048 49.5717C239.16 47.3317 238.216 44.0518 238.216 39.7318C238.216 35.3798 239.16 32.0838 241.048 29.8438C242.936 27.6038 245.416 26.4838 248.488 26.4838C250.568 26.4838 252.344 26.9638 253.816 27.9238C255.288 28.8518 256.328 30.0998 256.936 31.6678H257.272L257.512 26.9638H263.272V52.4997H257.272V47.7477H256.936C256.328 49.3157 255.288 50.5797 253.816 51.5397C252.344 52.4677 250.568 52.9317 248.488 52.9317ZM250.744 48.0357C252.184 48.0357 253.368 47.6997 254.296 47.0277C255.256 46.3557 255.976 45.4918 256.456 44.4358C256.936 43.3478 257.176 42.2118 257.176 41.0278V38.3878C257.176 37.1718 256.936 36.0358 256.456 34.9798C255.976 33.8918 255.256 33.0278 254.296 32.3878C253.368 31.7158 252.184 31.3798 250.744 31.3798C248.824 31.3798 247.272 32.0678 246.088 33.4438C244.904 34.8198 244.312 36.9158 244.312 39.7318C244.312 42.5158 244.904 44.5957 246.088 45.9717C247.272 47.3477 248.824 48.0357 250.744 48.0357Z" fill="#110D21"/>
<path d="M228.291 52.4998V17.5078H234.291V52.4998H228.291Z" fill="#110D21"/>
<path d="M212.937 52.9797C209.321 52.9797 206.521 52.1957 204.537 50.6277C202.585 49.0597 201.625 47.0117 201.657 44.4838H207.561C207.593 46.0198 208.121 47.1397 209.145 47.8437C210.201 48.5157 211.513 48.8517 213.081 48.8517C214.713 48.8517 215.945 48.5637 216.777 47.9877C217.641 47.4117 218.073 46.6118 218.073 45.5878C218.073 44.2758 217.609 43.4118 216.681 42.9958C215.785 42.5798 214.345 42.2278 212.361 41.9398C210.441 41.6518 208.729 41.2678 207.225 40.7878C205.721 40.3078 204.521 39.5718 203.625 38.5798C202.761 37.5558 202.329 36.1478 202.329 34.3558C202.329 31.7958 203.321 29.8438 205.305 28.4998C207.289 27.1558 209.881 26.4838 213.081 26.4838C216.313 26.4838 218.857 27.1878 220.713 28.5958C222.601 30.0038 223.561 31.9718 223.593 34.4998H217.737C217.705 33.1878 217.257 32.2118 216.393 31.5718C215.529 30.9318 214.377 30.6118 212.937 30.6118C211.433 30.6118 210.281 30.8998 209.481 31.4758C208.713 32.0518 208.329 32.8038 208.329 33.7318C208.329 34.8198 208.793 35.6038 209.721 36.0838C210.681 36.5638 212.169 36.9318 214.185 37.1878C215.977 37.4118 217.625 37.7638 219.129 38.2438C220.633 38.6918 221.833 39.4278 222.729 40.4518C223.657 41.4758 224.121 42.9958 224.121 45.0118C224.121 47.7317 223.113 49.7477 221.097 51.0597C219.113 52.3397 216.393 52.9797 212.937 52.9797Z" fill="#110D21"/>
<path d="M174.055 60.5157L174.103 26.9638H179.863L180.055 31.6678H180.439C181.047 30.0998 182.087 28.8518 183.559 27.9238C185.031 26.9638 186.791 26.4838 188.839 26.4838C191.911 26.4838 194.391 27.6038 196.279 29.8438C198.199 32.0838 199.159 35.3798 199.159 39.7318C199.159 44.0517 198.199 47.3477 196.279 49.6197C194.391 51.8597 191.911 52.9797 188.839 52.9797C186.791 52.9797 185.031 52.4997 183.559 51.5397C182.087 50.5797 181.047 49.3317 180.439 47.7957H180.055V60.5157H174.055ZM186.631 48.0837C188.551 48.0837 190.087 47.3957 191.239 46.0197C192.423 44.6438 193.015 42.5478 193.015 39.7318C193.015 36.9158 192.423 34.8198 191.239 33.4438C190.087 32.0678 188.551 31.3798 186.631 31.3798C185.191 31.3798 183.991 31.7158 183.031 32.3878C182.071 33.0598 181.351 33.9238 180.871 34.9798C180.391 36.0358 180.151 37.1718 180.151 38.3878V41.0758C180.151 42.2598 180.391 43.3958 180.871 44.4838C181.351 45.5397 182.071 46.4037 183.031 47.0757C183.991 47.7477 185.191 48.0837 186.631 48.0837Z" fill="#110D21"/>
<path d="M145.109 60.5157L145.157 26.9638H150.917L151.109 31.6678H151.493C152.101 30.0998 153.141 28.8518 154.613 27.9238C156.085 26.9638 157.845 26.4838 159.893 26.4838C162.965 26.4838 165.444 27.6038 167.332 29.8438C169.252 32.0838 170.212 35.3798 170.212 39.7318C170.212 44.0517 169.252 47.3477 167.332 49.6197C165.444 51.8597 162.965 52.9797 159.893 52.9797C157.845 52.9797 156.085 52.4997 154.613 51.5397C153.141 50.5797 152.101 49.3317 151.493 47.7957H151.109V60.5157H145.109ZM157.685 48.0837C159.605 48.0837 161.141 47.3957 162.293 46.0197C163.477 44.6438 164.069 42.5478 164.069 39.7318C164.069 36.9158 163.477 34.8198 162.293 33.4438C161.141 32.0678 159.605 31.3798 157.685 31.3798C156.245 31.3798 155.045 31.7158 154.085 32.3878C153.125 33.0598 152.405 33.9238 151.925 34.9798C151.445 36.0358 151.205 37.1718 151.205 38.3878V41.0758C151.205 42.2598 151.445 43.3958 151.925 44.4838C152.405 45.5397 153.125 46.4037 154.085 47.0757C155.045 47.7477 156.245 48.0837 157.685 48.0837Z" fill="#110D21"/>
<path d="M124.85 52.9317C121.778 52.9317 119.298 51.8117 117.41 49.5717C115.522 47.3317 114.578 44.0518 114.578 39.7318C114.578 35.3798 115.522 32.0838 117.41 29.8438C119.298 27.6038 121.778 26.4838 124.85 26.4838C126.93 26.4838 128.706 26.9638 130.178 27.9238C131.65 28.8518 132.69 30.0998 133.298 31.6678H133.634L133.874 26.9638H139.634V52.4997H133.634V47.7477H133.298C132.69 49.3157 131.65 50.5797 130.178 51.5397C128.706 52.4677 126.93 52.9317 124.85 52.9317ZM127.106 48.0357C128.546 48.0357 129.73 47.6997 130.658 47.0277C131.618 46.3557 132.338 45.4918 132.818 44.4358C133.298 43.3478 133.538 42.2118 133.538 41.0278V38.3878C133.538 37.1718 133.298 36.0358 132.818 34.9798C132.338 33.8918 131.618 33.0278 130.658 32.3878C129.73 31.7158 128.546 31.3798 127.106 31.3798C125.186 31.3798 123.634 32.0678 122.45 33.4438C121.266 34.8198 120.674 36.9158 120.674 39.7318C120.674 42.5158 121.266 44.5957 122.45 45.9717C123.634 47.3477 125.186 48.0357 127.106 48.0357Z" fill="#110D21"/>
<path d="M95.9041 52.9318C92.8321 52.9318 90.3521 51.8118 88.4641 49.5718C86.5761 47.3318 85.6321 44.0518 85.6321 39.7318C85.6321 35.3798 86.5761 32.0838 88.4641 29.8438C90.3521 27.6038 92.8321 26.4838 95.9041 26.4838C97.9841 26.4838 99.7601 26.9638 101.232 27.9238C102.704 28.8518 103.744 30.0998 104.352 31.6678H104.688V17.5078H110.688L110.64 52.4998H104.88L104.688 47.7478H104.352C103.744 49.3158 102.704 50.5798 101.232 51.5398C99.7601 52.4678 97.9841 52.9318 95.9041 52.9318ZM98.1601 48.0358C99.6001 48.0358 100.784 47.6998 101.712 47.0278C102.672 46.3558 103.392 45.4918 103.872 44.4358C104.352 43.3478 104.592 42.2118 104.592 41.0278V38.3878C104.592 37.1718 104.352 36.0358 103.872 34.9798C103.392 33.8918 102.672 33.0278 101.712 32.3878C100.784 31.7158 99.6001 31.3798 98.1601 31.3798C96.2401 31.3798 94.6881 32.0678 93.5041 33.4438C92.3201 34.8198 91.7281 36.9158 91.7281 39.7318C91.7281 42.5158 92.3201 44.5958 93.5041 45.9718C94.6881 47.3478 96.2401 48.0358 98.1601 48.0358Z" fill="#110D21"/>
<path d="M243.379 17.1119V8.06177H247.824C248.742 8.06177 249.433 8.27695 249.897 8.70732C250.36 9.12941 250.592 9.68806 250.592 10.3833C250.592 10.8467 250.472 11.2606 250.232 11.6247C250 11.9889 249.665 12.233 249.227 12.3572V12.4565C249.748 12.5641 250.145 12.8082 250.418 13.1889C250.7 13.5614 250.84 14.0041 250.84 14.5173C250.84 15.3697 250.555 16.0153 249.984 16.4539C249.421 16.8926 248.622 17.1119 247.588 17.1119H243.379ZM245.254 11.7737H247.364C247.811 11.7737 248.134 11.6702 248.333 11.4633C248.54 11.2564 248.643 10.9874 248.643 10.6564C248.643 10.284 248.519 10.0067 248.271 9.82462C248.031 9.63426 247.708 9.53908 247.302 9.53908H245.254V11.7737ZM245.254 15.6222H247.377C247.89 15.6222 248.267 15.5104 248.507 15.287C248.747 15.0635 248.867 14.7697 248.867 14.4055C248.867 13.9917 248.738 13.6896 248.482 13.4993C248.233 13.3007 247.89 13.2013 247.451 13.2013H245.254V15.6222Z" fill="#110D21" fill-opacity="0.5"/>
<path d="M256.897 17.1119V8.06177H263.477V9.71289H258.834V11.7364H262.868V13.2882H258.834V15.4608H263.502V17.1119H256.897Z" fill="#110D21" fill-opacity="0.5"/>
<path d="M271.415 17.1119V9.73771H268.746V8.06177H276.07V9.73771H273.339V17.1119H271.415Z" fill="#110D21" fill-opacity="0.5"/>
<path d="M279.812 17.1119L282.829 8.06177H285.56L288.577 17.1119H286.565L285.957 15.2497H282.431L281.823 17.1119H279.812ZM282.878 13.7724H285.51L284.74 11.4633L284.231 9.8122H284.157L283.648 11.4633L282.878 13.7724Z" fill="#110D21" fill-opacity="0.5"/>
<defs>
<linearGradient id="paint0_linear_323_150" x1="30.7641" y1="13.6751" x2="30.7641" y2="69.3089" gradientUnits="userSpaceOnUse">
<stop stop-color="#FFA755"/>
<stop offset="1" stop-color="#FF4D7C"/>
</linearGradient>
<linearGradient id="paint1_linear_323_150" x1="55.4897" y1="4.21546" x2="32.8594" y2="11.3448" gradientUnits="userSpaceOnUse">
<stop stop-color="#B3D944"/>
<stop offset="1" stop-color="#83B337"/>
</linearGradient>
</defs>
</svg>
