<svg width="120" height="120" viewBox="0 0 120 120" fill="none" xmlns="http://www.w3.org/2000/svg">
<g clip-path="url(#clip0_169_119)">
<path fill-rule="evenodd" clip-rule="evenodd" d="M55.3499 26.9947C47.3595 22.4316 37.7442 21.4477 29.3082 23.6186C16.1671 27.0084 4.5 38.4154 4.5 57.4795C4.5 82.4233 24.5246 102.597 57.141 119.277C58.0722 119.753 59.0899 120 60.1204 120C61.1509 120 62.1686 119.753 63.0998 119.277C95.7232 102.605 115.748 82.4308 115.748 57.487C115.748 38.4229 104.081 27.0084 90.9395 23.6261C85.6227 22.2578 79.7035 22.9852 74.5143 24.5493C65.5073 27.2643 58.6695 32.7967 56.026 35.625C53.8941 37.906 54.0157 39.4219 54.2081 39.9625C54.4029 40.5099 55.1286 41.3751 57.0288 41.4894C61.5378 41.7606 65.2517 39.7706 68.9425 37.7931L69.1893 37.6608C70.8025 36.7962 72.8853 35.68 74.8819 35.3961C76.0388 35.2316 77.3788 35.3025 78.6953 35.96C79.9997 36.6113 80.9276 37.6621 81.5905 38.8233C82.5696 40.5382 82.5791 42.4039 82.2181 43.997C81.8607 45.5742 81.095 47.128 80.1527 48.5782C78.2626 51.4871 75.2795 54.5607 71.7002 57.4325C64.539 63.1781 54.3246 68.6445 43.8196 70.5101C41.9487 70.8423 40.1626 69.595 39.8303 67.724C39.4981 65.8531 40.7454 64.067 42.6164 63.7348C51.7466 62.1133 60.9225 57.2574 67.3938 52.0652C70.6308 49.4681 73.0244 46.919 74.3825 44.8289C75.0644 43.7796 75.3906 42.9897 75.5069 42.4764C75.6002 42.0647 72.673 43.6011 72.3293 43.7852C72.1689 43.8712 72.0043 43.9598 71.8354 44.0508C68.3608 45.9217 63.1105 48.7489 56.6157 48.3583C52.6692 48.1209 49.0625 46.0267 47.7253 42.2702C46.3857 38.507 47.7757 34.3747 50.9987 30.9262C52.029 29.8239 53.4995 28.4536 55.3499 26.9947ZM83.9566 58.4995C85.2649 57.1222 87.4421 57.0657 88.82 58.3736C90.1982 59.6818 90.2549 61.8596 88.9467 63.2378C88.8754 63.3129 88.7992 63.3913 88.7254 63.467C88.5891 63.6067 88.391 63.8078 88.1339 64.0638C87.6197 64.5758 86.8687 65.3082 85.9018 66.2101C83.9691 68.013 81.1679 70.499 77.6666 73.2596C70.6859 78.7634 60.817 85.4423 49.4181 89.9309C47.6501 90.6272 45.6523 89.7583 44.9561 87.9902C44.2599 86.2221 45.1288 84.2244 46.8968 83.5282C57.4499 79.3725 66.7279 73.1212 73.4061 67.8558C76.7342 65.2318 79.3905 62.8735 81.2079 61.1782C82.1161 60.3311 82.8132 59.6509 83.2785 59.1876C83.5111 58.956 83.6856 58.7788 83.7993 58.6621L83.8758 58.5834L83.9241 58.5334L83.9517 58.5046L83.9566 58.4995ZM99.3417 74.5543C100.467 73.0235 100.139 70.8699 98.6082 69.7441C97.0778 68.6187 94.9249 68.9466 93.7989 70.4764L93.798 70.4776L93.7973 70.4785L93.7787 70.5034C93.7604 70.5279 93.7303 70.568 93.6884 70.623C93.6046 70.7331 93.4739 70.9027 93.2972 71.1264C92.9437 71.5738 92.4066 72.2368 91.6929 73.0706C90.2647 74.7392 88.1339 77.0865 85.3577 79.7564C79.7939 85.1071 71.7001 91.6933 61.5339 96.7329C59.8314 97.5769 59.1354 99.6412 59.9793 101.344C60.8233 103.046 62.8876 103.742 64.5902 102.898C75.5619 97.4594 84.2219 90.3958 90.1276 84.7163C93.0861 81.8711 95.3689 79.3582 96.9206 77.5453C97.6969 76.6385 98.2913 75.9055 98.6969 75.392C98.8997 75.1353 99.0554 74.9333 99.1632 74.7918C99.2228 74.7136 99.2822 74.6351 99.3405 74.5559L99.3417 74.5543Z" fill="white"/>
<path d="M55.3803 26.9679C44.3495 -0.423351 75.9239 -9.28977 102.876 11.3541C102.876 11.3541 73.7329 12.4442 55.3803 26.9679Z" fill="white"/>
</g>
<defs>
<clipPath id="clip0_169_119">
<rect width="120" height="120" fill="white"/>
</clipPath>
</defs>
</svg>
